<?xml version="1.0" encoding="utf-8"?>
<svg version="1.1" id="Layer_1" xmlns="http://www.w3.org/2000/svg" xmlns:xlink="http://www.w3.org/1999/xlink" x="0px" y="0px"
	 viewBox="0 0 2218 1657.9141" enable-background="new 0 0 2218 1657.9141" xml:space="preserve">
<g>
	<path d="M1569.4821,756.3787c167.0688,31.0914,340.3372,34.0774,398.8802-27.9609
		c52.1882-55.3039,12.3429-140.7786-46.7471-224.1246c-40.5529-58.7409-83.7411-117.9243-134.562-173.0084
		c-60.6146-65.6991-61.6538-133.8582-1.3108-209.7072c33.6063-43.1924,72.9994-77.0134,123.6398-92.6206
		c-62.1421,71.4389-59.4829,143.3604-3.0581,212.7654c52.1213,64.1116,137.8567,138.4986,220.1923,228.4933
		c75.1453,82.1354,73.8345,215.8237-28.8345,290.9688C1996.3132,832.2311,1811.1814,821.8126,1569.4821,756.3787z"/>
	<path d="M1439.8455,691.8228c-47.2252-69.2252-98.6542-233.7604-94.47-274.0397c0.3362-3.2361,4.1588-4.7489,6.6239-2.6256
		c95.0145,81.8394,193.0103,144.1442,296.3412,171.4895c131.3197,36.7415,235.7904,43.8434,248.6996-50.1331
		c60.6372,76.7186,69.5493,135.989,16.3833,174.3191c-104.9227,50.3553-267.4762,31.0848-459.0155-9.257
		C1448.4769,700.3267,1443.2612,696.8298,1439.8455,691.8228z"/>
	<path d="M648.518,756.3787c-167.0689,31.0914-340.3372,34.0774-398.8804-27.9609
		c-52.1882-55.3039-12.3429-140.7786,46.7472-224.1246c40.5529-58.7409,83.741-117.9243,134.562-173.0084
		c60.6145-65.6991,61.6538-133.8582,1.3107-209.7072c-33.6062-43.1924-72.9993-77.0134-123.6397-92.6206
		c62.1421,71.4389,59.4829,143.3604,3.0581,212.7654C259.5546,305.8341,173.8192,380.221,91.4836,470.2158
		c-75.1452,82.1354-73.8345,215.8237,28.8346,290.9688C221.6867,832.2311,406.8186,821.8126,648.518,756.3787z"/>
	<path d="M778.1545,691.8228c47.2252-69.2252,98.6542-233.7604,94.4699-274.0397c-0.3361-3.2361-4.1587-4.7489-6.6238-2.6256
		c-95.0145,81.8394-193.0103,144.1442-296.3412,171.4895c-131.3198,36.7415-235.7905,43.8434-248.6996-50.1331
		c-60.6372,76.7186-69.5493,135.989-16.3834,174.3191c104.9228,50.3553,267.4763,31.0848,459.0156-9.257
		C769.5231,700.3267,774.7388,696.8298,778.1545,691.8228z"/>
	<path d="M1463.5361,756.3787c-87.8148-35.0604-182.1831-240.1802-150.7271-346.0168
		c-63.0472-8.6763-120.3456-27.2895-172.353-55.0481l-12.1237,1024.9436h-19.66h-19.66l-12.1238-1024.9436
		c-52.0074,27.7586-109.3057,46.3718-172.353,55.0481c31.4561,105.8366-62.9121,310.9564-150.727,346.0168
		c-48.231,93.7338-59.9077,149.6456-25.558,157.9357c35.0604-70.4485,192.9961-65.8611,243.1292-19.0047
		c4.8883,69.9946-104.5259,114.6836-214.9498,74.0529c7.864,61.6014,109.4409,167.7657,186.1151,285.0707
		c41.9034,58.8145,67.6739,118.6497,55.7035,180.8723l3.4405-0.1638c-30.116,55.6479-30.8826,98.3822,8.7651,150.809
		c23.2811,30.7848,57.5153,43.0111,97.8906,43.0063H1109c40.3752,0.0048,74.6096-12.2216,97.8906-43.0063
		c39.6478-52.4268,38.8811-95.161,8.7651-150.809l3.4404,0.1638c-11.9703-62.2227,13.8002-122.0579,55.7035-180.8723
		c76.6742-117.3049,178.2511-223.4692,186.1151-285.0707c-110.424,40.6307-219.8381-4.0583-214.9498-74.0529
		c50.1332-46.8564,208.0688-51.4438,243.1293,19.0047C1523.4437,906.0243,1511.7671,850.1125,1463.5361,756.3787z
		 M1109.6554,1575.5472h-1.9661c-40.7294,0.5153-71.7592-25.5581-71.7592-70.4485c0-40.9584,30.2258-67.0015,72.7422-71.4315
		c42.5162,4.4301,72.7422,30.4731,72.7422,71.4315C1181.4146,1549.9891,1150.3846,1576.0625,1109.6554,1575.5472z"/>
</g>
</svg>
