<?xml version="1.0" encoding="UTF-8" standalone="no"?>
<!DOCTYPE svg PUBLIC "-//W3C//DTD SVG 1.1//EN" "http://www.w3.org/Graphics/SVG/1.1/DTD/svg11.dtd">
<svg width="100%" height="100%" viewBox="0 0 2218 1658" version="1.1" xmlns="http://www.w3.org/2000/svg" xmlns:xlink="http://www.w3.org/1999/xlink" xml:space="preserve" xmlns:serif="http://www.serif.com/" style="fill-rule:evenodd;clip-rule:evenodd;stroke-linejoin:round;stroke-miterlimit:2;">
    <g>
        <path d="M1569.48,756.379C1736.55,787.47 1909.82,790.456 1968.36,728.418C2020.55,673.114 1980.71,587.639 1921.62,504.293C1881.06,445.552 1837.87,386.369 1787.05,331.285C1726.44,265.586 1725.4,197.427 1785.74,121.578C1819.35,78.385 1858.74,44.564 1909.38,28.957C1847.24,100.396 1849.9,172.317 1906.32,241.722C1958.44,305.834 2044.18,380.221 2126.52,470.216C2201.66,552.351 2200.35,686.039 2097.68,761.184C1996.31,832.231 1811.18,821.813 1569.48,756.379Z" style="fill:url(#_Linear1);fill-rule:nonzero;"/>
        <path d="M1439.85,691.823C1392.62,622.598 1341.19,458.062 1345.38,417.783C1345.71,414.547 1349.53,413.034 1352,415.158C1447.01,496.997 1545.01,559.302 1648.34,586.647C1779.66,623.389 1884.13,630.49 1897.04,536.514C1957.68,613.233 1966.59,672.503 1913.42,710.833C1808.5,761.188 1645.95,741.918 1454.41,701.576C1448.48,700.327 1443.26,696.83 1439.85,691.823Z" style="fill:url(#_Linear2);fill-rule:nonzero;"/>
        <path d="M648.518,756.379C481.449,787.47 308.181,790.456 249.638,728.418C197.449,673.114 237.295,587.639 296.385,504.293C336.938,445.552 380.126,386.369 430.947,331.285C491.561,265.586 492.601,197.427 432.258,121.578C398.651,78.385 359.258,44.564 308.618,28.957C370.76,100.396 368.101,172.317 311.676,241.722C259.555,305.834 173.819,380.221 91.484,470.216C16.338,552.351 17.649,686.04 120.318,761.185C221.687,832.231 406.819,821.813 648.518,756.379Z" style="fill:url(#_Linear3);fill-rule:nonzero;"/>
        <path d="M778.155,691.823C825.38,622.598 876.809,458.062 872.624,417.783C872.288,414.547 868.466,413.034 866.001,415.158C770.986,496.997 672.99,559.302 569.659,586.647C438.34,623.389 333.869,630.49 320.96,536.514C260.323,613.233 251.41,672.503 304.576,710.833C409.499,761.188 572.053,741.918 763.592,701.576C769.523,700.327 774.739,696.83 778.155,691.823Z" style="fill:url(#_Linear4);fill-rule:nonzero;"/>
        <path d="M1463.54,756.379C1375.72,721.318 1281.35,516.198 1312.81,410.362C1249.76,401.686 1192.46,383.072 1140.46,355.314L1128.33,1380.26L1089.01,1380.26L1076.89,355.314C1024.88,383.072 967.583,401.686 904.535,410.362C935.992,516.198 841.623,721.318 753.808,756.379C705.577,850.112 693.901,906.024 728.25,914.314C763.311,843.866 921.247,848.453 971.38,895.31C976.268,965.304 866.854,1009.99 756.43,969.363C764.294,1030.96 865.871,1137.13 942.545,1254.43C984.448,1313.25 1010.22,1373.08 998.248,1435.31L1001.69,1435.14C971.573,1490.79 970.806,1533.52 1010.45,1585.95C1033.74,1616.74 1067.97,1628.96 1108.35,1628.96L1109,1628.96C1149.38,1628.96 1183.61,1616.74 1206.89,1585.95C1246.54,1533.52 1245.77,1490.79 1215.66,1435.14L1219.1,1435.31C1207.13,1373.08 1232.9,1313.25 1274.8,1254.43C1351.47,1137.13 1453.05,1030.96 1460.91,969.363C1350.49,1009.99 1241.08,965.304 1245.96,895.31C1296.1,848.453 1454.03,843.866 1489.09,914.314C1523.44,906.024 1511.77,850.112 1463.54,756.379ZM1109.65,1575.55L1107.69,1575.55C1066.96,1576.06 1035.93,1549.99 1035.93,1505.1C1035.93,1464.14 1066.16,1438.1 1108.67,1433.67C1151.19,1438.1 1181.41,1464.14 1181.41,1505.1C1181.41,1549.99 1150.38,1576.06 1109.65,1575.55Z" style="fill:url(#_Linear5);fill-rule:nonzero;"/>
    </g>
    <defs>
        <linearGradient id="_Linear1" x1="0" y1="0" x2="1" y2="0" gradientUnits="userSpaceOnUse" gradientTransform="matrix(30.6294,25.3286,-25.3286,30.6294,158.39,185.755)"><stop offset="0" style="stop-color:black;stop-opacity:1"/><stop offset="1" style="stop-color:rgb(229,229,229);stop-opacity:1"/></linearGradient>
        <linearGradient id="_Linear2" x1="0" y1="0" x2="1" y2="0" gradientUnits="userSpaceOnUse" gradientTransform="matrix(30.6294,25.3286,-25.3286,30.6294,158.39,185.755)"><stop offset="0" style="stop-color:black;stop-opacity:1"/><stop offset="1" style="stop-color:rgb(229,229,229);stop-opacity:1"/></linearGradient>
        <linearGradient id="_Linear3" x1="0" y1="0" x2="1" y2="0" gradientUnits="userSpaceOnUse" gradientTransform="matrix(30.6294,25.3286,-25.3286,30.6294,158.39,185.755)"><stop offset="0" style="stop-color:black;stop-opacity:1"/><stop offset="1" style="stop-color:rgb(229,229,229);stop-opacity:1"/></linearGradient>
        <linearGradient id="_Linear4" x1="0" y1="0" x2="1" y2="0" gradientUnits="userSpaceOnUse" gradientTransform="matrix(30.6294,25.3286,-25.3286,30.6294,158.39,185.755)"><stop offset="0" style="stop-color:black;stop-opacity:1"/><stop offset="1" style="stop-color:rgb(229,229,229);stop-opacity:1"/></linearGradient>
        <linearGradient id="_Linear5" x1="0" y1="0" x2="1" y2="0" gradientUnits="userSpaceOnUse" gradientTransform="matrix(30.6294,25.3286,-25.3286,30.6294,158.39,185.755)"><stop offset="0" style="stop-color:black;stop-opacity:1"/><stop offset="1" style="stop-color:rgb(229,229,229);stop-opacity:1"/></linearGradient>
    </defs>
</svg>
